<svg xmlns="http://www.w3.org/2000/svg" viewBox="0 0 256 256">
  <rect width="256" height="256" fill="#00007e"/>
  <path d="M128 40c-48.6 0-88 39.4-88 88s39.4 88 88 88 88-39.4 88-88-39.4-88-88-88zm0 160c-39.8 0-72-32.2-72-72s32.2-72 72-72 72 32.2 72 72-32.2 72-72 72z" fill="#fff"/>
  <circle cx="128" cy="128" r="20" fill="#fff"/>
  <path d="M128 88c-22 0-40 18-40 40s18 40 40 40 40-18 40-40-18-40-40-40zm0 64c-13.3 0-24-10.7-24-24s10.7-24 24-24 24 10.7 24 24-10.7 24-24 24z" fill="#00007e"/>
</svg>